<svg id="Layer_2" data-name="Layer 2" xmlns="http://www.w3.org/2000/svg" viewBox="0 0 340.03 306.58"><path d="M667.88,304.58c-8.72-28.37-37.52-52.14-74.63-57.26-7.31-1-15.58-1.13-21.3,2.6-4.62,3-6.5,7.84-8.16,12.38q-6.79,18.65-13.58,37.3c-.75,2.07-1.5,4.31-.5,6.31s3.46,3.23,5.75,4.38C611.79,338.46,651.34,391,649.7,444.1c-.92,30.11-15.57,59.37-41.9,81.32,25.79-21.5,47.44-45.48,51.28-75.89,3.59-28.32-8.94-56.17-20.52-83.13-1.54-3.59-3.08-7.38-2.12-11.08,2.29-8.83,16.24-11.73,24.44-18C671.83,329,671.21,315.4,667.88,304.58Z" transform="translate(-329.99 -246.71)" fill="#231f20"/><path d="M537,519.66c-.33-.77-.11-1.62-.37-2.41-.48-1.49-2.46-2.32-4.29-2.87-10-3-21.1-2.87-31.84-2.7a3.66,3.66,0,0,1-1.08,0c-10.74-.17-21.8-.31-31.84,2.7-1.83.55-3.81,1.38-4.29,2.87-.26.79,0,1.64-.37,2.41a9.67,9.67,0,0,1-1.37,1.75c-1.52,2-.44,4.75,1.63,6.45s4.92,2.64,7.63,3.64A95,95,0,0,1,484,537.57a51.48,51.48,0,0,0,7.47,3.83,15,15,0,0,0,8.57.76,15,15,0,0,0,8.57-.76,51.48,51.48,0,0,0,7.47-3.83,95,95,0,0,1,13.11-6.07c2.71-1,5.56-1.94,7.63-3.64s3.15-4.42,1.63-6.45A9.67,9.67,0,0,1,537,519.66Z" transform="translate(-329.99 -246.71)" fill="#231f20"/><path d="M444.54,310.29c2.29-1.15,4.76-2.39,5.75-4.38s.25-4.24-.5-6.31Q443,281,436.21,262.3c-1.66-4.54-3.54-9.37-8.16-12.38-5.72-3.73-14-3.61-21.3-2.6-37.11,5.12-65.91,28.89-74.63,57.26-3.33,10.82-3.95,24.37,7,32.74,8.2,6.27,22.15,9.17,24.44,18,1,3.7-.58,7.49-2.12,11.08-11.58,27-24.11,54.81-20.52,83.13,3.84,30.41,25.49,54.39,51.28,75.89-26.33-21.95-41-51.21-41.9-81.32C348.66,391,388.21,338.46,444.54,310.29Z" transform="translate(-329.99 -246.71)" fill="#231f20"/><path d="M600.72,452.94c-1.21-2.7-3.42-5-5.59-7.33l-25-26.33c-3.77-4-8-8.17-14-9.53a20.88,20.88,0,0,0-19.61,6.7c-4.19,5-5.08,11.34-4.56,17.33,1.43,16.49,8.31,28,17.31,42.88s21.44,36.05,15.3,51.85c-1.63,4.18-4.4,8-7,11.87-4.93,7.44-11.61,11.4-12.22,12.91,15.15-7.45,24.72-21.44,24.28-35.49a56.12,56.12,0,0,0-3-14.86,208.81,208.81,0,0,0-20.71-45.67l20,27.33c1.43,1.95,3.24,4.11,6.07,4.39s5.35-1.51,7.36-3.17l7-5.82c4.51-3.74,9.09-7.55,12.14-12.12S602.89,457.81,600.72,452.94Zm-46.6-12.77a4.9,4.9,0,1,1,4.9-4.9A4.9,4.9,0,0,1,554.12,440.17Z" transform="translate(-329.99 -246.71)" fill="#231f20"/><path d="M468.08,433.78c.52-6-.37-12.31-4.56-17.33a20.88,20.88,0,0,0-19.61-6.7c-6.05,1.36-10.25,5.57-14,9.53l-25,26.33c-2.17,2.29-4.38,4.63-5.59,7.33-2.17,4.87-.77,10.38,2.29,14.94s7.63,8.38,12.14,12.12l7,5.82c2,1.66,4.48,3.47,7.36,3.17s4.64-2.44,6.07-4.39l20-27.33a208.81,208.81,0,0,0-20.71,45.67,56.12,56.12,0,0,0-3,14.86c-.44,14.05,9.13,28,24.28,35.49-.61-1.51-7.29-5.47-12.22-12.91-2.57-3.87-5.34-7.69-7-11.87-6.14-15.8,6.3-36.92,15.3-51.85S466.65,450.27,468.08,433.78Zm-17.31,6.39a4.9,4.9,0,1,1,4.9-4.9A4.9,4.9,0,0,1,450.77,440.17Z" transform="translate(-329.99 -246.71)" fill="#231f20"/></svg>